<svg xmlns="http://www.w3.org/2000/svg" xmlns:xlink="http://www.w3.org/1999/xlink"><defs>
        <style>
            .cls-1{fill:none;}.cls-2{clip-path:url(#clip-path);}
        </style>
        <clipPath id="clip-path" transform="translate(0.7 0.7)">
            <rect class="cls-1" width="20" height="20"/>
        </clipPath>
    </defs><symbol id="arrow-up-right" viewBox="0 0 12 12">
            <path d="M11,12a1,1,0,0,1-.71-.29l-10-10A1,1,0,0,1,1.71.29l10,10a1,1,0,0,1,0,1.42A1,1,0,0,1,11,12Z"/>
            <path d="M11,12H1a1,1,0,0,1,0-2h9V1a1,1,0,0,1,2,0V11A1,1,0,0,1,11,12Z"/>
</symbol><symbol id="arrow" viewBox="0 0 16 16">
            <path class="cls-1" d="M8,16a1,1,0,0,1-1-1V1A1,1,0,0,1,9,1V15A1,1,0,0,1,8,16Z"/>
            <path class="cls-1" d="M8,16a1,1,0,0,1-.71-.29l-7-7A1,1,0,1,1,1.71,7.29L8,13.59l6.29-6.3a1,1,0,1,1,1.42,1.42l-7,7A1,1,0,0,1,8,16Z"/>
</symbol><symbol id="audit" viewBox="0 0 78.31 78.29">
            <path class="cls-1" d="M43.84,18.61a1.52,1.52,0,0,1-1.45-1.87L45.3,5.11A9.86,9.86,0,0,0,33,5.11l2.9,11.63a1.5,1.5,0,0,1-2.91.73L29.89,5a1.51,1.51,0,0,1,.39-1.43A12.9,12.9,0,0,1,48,3.54,1.51,1.51,0,0,1,48.42,5L45.3,17.47A1.51,1.51,0,0,1,43.84,18.61Z"/>
            <path class="cls-1" d="M72.12,43.61H6.19a6.19,6.19,0,1,1,0-12.38H72.12a6.19,6.19,0,0,1,0,12.38ZM6.19,34.23a3.19,3.19,0,0,0,0,6.38H72.12a3.19,3.19,0,0,0,0-6.38Z"/>
            <path class="cls-1" d="M9.63,34.23H9.47a1.49,1.49,0,0,1-1.33-1.65,31.25,31.25,0,0,1,23.45-27,1.5,1.5,0,1,1,.72,2.91A28.26,28.26,0,0,0,11.12,32.89,1.5,1.5,0,0,1,9.63,34.23Z"/>
            <path class="cls-1" d="M68.68,34.23a1.5,1.5,0,0,1-1.49-1.34A28.25,28.25,0,0,0,46,8.5a1.5,1.5,0,1,1,.72-2.91,31.23,31.23,0,0,1,23.45,27,1.49,1.49,0,0,1-1.33,1.65Z"/>
            <path class="cls-1" d="M45.41,78.29H32.91a1.5,1.5,0,0,1-1.5-1.5v-4.3a28,28,0,0,1-5.83-2.41l-3,3a1.49,1.49,0,0,1-2.12,0l-8.84-8.84a1.5,1.5,0,0,1,0-2.12l3-3a28,28,0,0,1-2.41-5.83H7.91a1.5,1.5,0,0,1-1.5-1.5V42.11a1.5,1.5,0,0,1,3,0v8.18h3.95a1.5,1.5,0,0,1,1.46,1.15,25.09,25.09,0,0,0,3,7.14,1.5,1.5,0,0,1-.22,1.84l-2.8,2.8,6.72,6.72,2.8-2.8a1.5,1.5,0,0,1,1.84-.22,25,25,0,0,0,7.14,3,1.5,1.5,0,0,1,1.15,1.45v4h9.5v-4a1.49,1.49,0,0,1,1.14-1.45,24.85,24.85,0,0,0,7.14-3,1.5,1.5,0,0,1,1.84.22l2.8,2.8,6.72-6.72-2.8-2.8a1.5,1.5,0,0,1-.22-1.84,24.81,24.81,0,0,0,3-7.14A1.51,1.51,0,0,1,65,50.29h4V42.11a1.5,1.5,0,0,1,3,0v9.68a1.5,1.5,0,0,1-1.5,1.5H66.1a28,28,0,0,1-2.41,5.83l3,3a1.49,1.49,0,0,1,0,2.12l-8.84,8.84a1.49,1.49,0,0,1-2.12,0l-3-3a28.14,28.14,0,0,1-5.82,2.41v4.3A1.5,1.5,0,0,1,45.41,78.29Z"/>
            <path class="cls-1" d="M39.16,64.23A18.71,18.71,0,0,1,20.47,45.54a18.91,18.91,0,0,1,.38-3.74,1.5,1.5,0,0,1,1.78-1.16,1.49,1.49,0,0,1,1.16,1.77,15.68,15.68,0,1,0,31.05,3.13,15,15,0,0,0-.32-3.13,1.5,1.5,0,0,1,2.94-.61,18.68,18.68,0,0,1-18.3,22.43Z"/>

</symbol><symbol id="autsors" viewBox="0 0 78.31 78.31">

            <path class="cls-1" d="M65.56,62.69H6.19A6.2,6.2,0,0,1,0,56.5V15.56A6.19,6.19,0,0,1,6.19,9.38h5a1.5,1.5,0,0,1,0,3h-5A3.18,3.18,0,0,0,3,15.56V56.5a3.19,3.19,0,0,0,3.19,3.19H65.56a3.19,3.19,0,0,0,3.19-3.19V42.12a1.5,1.5,0,0,1,3,0V56.5A6.2,6.2,0,0,1,65.56,62.69Z"/>
            <path class="cls-1" d="M49.94,78.31H21.81a1.5,1.5,0,0,1-1.35-.85,1.49,1.49,0,0,1,.18-1.58L22,74.16a20.8,20.8,0,0,0,4.55-13,1.5,1.5,0,0,1,1.5-1.5H43.69a1.5,1.5,0,0,1,1.5,1.5,20.8,20.8,0,0,0,4.55,13l1.37,1.72a1.49,1.49,0,0,1,.18,1.58A1.5,1.5,0,0,1,49.94,78.31Zm-25-3H46.84a23.87,23.87,0,0,1-4.6-12.62H29.51A23.87,23.87,0,0,1,24.91,75.31Z"/>
            <path class="cls-1" d="M54.62,78.31H17.12a1.5,1.5,0,0,1,0-3h37.5a1.5,1.5,0,1,1,0,3Z"/>
            <path class="cls-1" d="M70.25,53H1.5a1.5,1.5,0,0,1,0-3H70.25a1.5,1.5,0,0,1,0,3Z"/>
            <path class="cls-1" d="M76.81,43.62H11.19a1.5,1.5,0,0,1-1.5-1.5V1.5A1.5,1.5,0,0,1,11.19,0H76.81a1.5,1.5,0,0,1,1.5,1.5V42.12A1.5,1.5,0,0,1,76.81,43.62Zm-64.12-3H75.31V3H12.69Z"/>
            <path class="cls-1" d="M48.69,34.25H20.56a1.5,1.5,0,0,1-1.5-1.5V18.69a1.5,1.5,0,0,1,1.5-1.5h7.88V10.88a1.5,1.5,0,0,1,1.5-1.5h9.37a1.5,1.5,0,0,1,1.5,1.5V23.44h7.88a1.5,1.5,0,0,1,1.5,1.5v7.81A1.5,1.5,0,0,1,48.69,34.25Zm-7.88-3h6.38V26.44H40.81Zm-9.37,0h6.37V12.38H31.44Zm-9.38,0h6.38V20.19H22.06Z"/>
            <path class="cls-1" d="M67.44,21.75H58.06a1.5,1.5,0,0,1,0-3h9.38a1.5,1.5,0,0,1,0,3Z"/>
            <path class="cls-1" d="M67.44,12.38H58.06a1.5,1.5,0,0,1,0-3h9.38a1.5,1.5,0,0,1,0,3Z"/>

</symbol><symbol id="bell" viewBox="0 0 55.33 55.33">
            <path class="cls-1" d="M20.56,41.11A20.56,20.56,0,1,1,41.11,20.56,20.58,20.58,0,0,1,20.56,41.11ZM20.56,2A18.56,18.56,0,1,0,39.11,20.56,18.57,18.57,0,0,0,20.56,2Z"/>
            <path class="cls-1" d="M20.55,26A5.45,5.45,0,1,1,26,20.56,5.45,5.45,0,0,1,20.55,26Zm0-8.89A3.45,3.45,0,1,0,24,20.56,3.45,3.45,0,0,0,20.55,17.11Z"/>
            <path class="cls-1" d="M49.89,37.56a5.45,5.45,0,1,1,5.44-5.45A5.45,5.45,0,0,1,49.89,37.56Zm0-8.89a3.45,3.45,0,1,0,3.44,3.44A3.44,3.44,0,0,0,49.89,28.67Z"/>
            <path class="cls-1" d="M39.22,55.33H1.89a1,1,0,0,1-1-1V47.22a1,1,0,0,1,1-1H7.11V35.64a1,1,0,0,1,2,0V46.22H32V35.64a1,1,0,0,1,2,0V46.22h5.22a9.68,9.68,0,0,0,9.67-9.66,1,1,0,0,1,2,0A11.68,11.68,0,0,1,40.22,48.18v6.15A1,1,0,0,1,39.22,55.33Zm-36.33-2H38.22V48.22H2.89ZM48.21,21.56h-1a1,1,0,0,1,0-2h1a1,1,0,0,1,0,2Zm-3-10.21a1,1,0,0,1-.38-1.92l2.47-1A1,1,0,1,1,48,10.25l-2.47,1A1,1,0,0,1,45.19,11.35ZM39.41,2.7a1,1,0,0,1-.71-.29,1,1,0,0,1,0-1.42l.7-.7a1,1,0,0,1,1.41,0,1,1,0,0,1,0,1.42l-.7.7A1,1,0,0,1,39.41,2.7Z"/>
</symbol><symbol id="clock" viewBox="0 0 37 37">

            <path class="cls-1" d="M18.5,37A18.5,18.5,0,1,1,37,18.5,18.52,18.52,0,0,1,18.5,37Zm0-36A17.5,17.5,0,1,0,36,18.5,17.52,17.52,0,0,0,18.5,1Z"/>
            <path class="cls-2" d="M18.5,37A18.5,18.5,0,1,1,37,18.5,18.52,18.52,0,0,1,18.5,37Zm0-36A17.5,17.5,0,1,0,36,18.5,17.52,17.52,0,0,0,18.5,1Z"/>
            <path class="cls-1" d="M25.5,23.5a.54.54,0,0,1-.22-.05l-7-3.5A.51.51,0,0,1,18,19.5V9a.5.5,0,0,1,1,0V19.19l6.72,3.36a.5.5,0,0,1-.22.95Z"/>
            <path class="cls-2" d="M25.5,23.5a.54.54,0,0,1-.22-.05l-7-3.5A.51.51,0,0,1,18,19.5V9a.5.5,0,0,1,1,0V19.19l6.72,3.36a.5.5,0,0,1-.22.95Z"/>

</symbol><symbol id="close" viewBox="0 0 21.4 21.4">
    

            <g class="cls-2">
                <path class="cls-3" d="M20,20.7a.74.74,0,0,1-.5-.2L-.5.5a.72.72,0,0,1,0-1,.71.71,0,0,1,1,0l20,20A.7.7,0,0,1,20,20.7Z" transform="translate(0.7 0.7)"/>
                <path class="cls-4" d="M20,20.7a.74.74,0,0,1-.5-.2L-.5.5a.72.72,0,0,1,0-1,.71.71,0,0,1,1,0l20,20A.7.7,0,0,1,20,20.7Z" transform="translate(0.7 0.7)"/>
                <path class="cls-3" d="M0,20.7a.7.7,0,0,1-.49-.2.7.7,0,0,1,0-1l20-20a.71.71,0,0,1,1,0,.72.72,0,0,1,0,1l-20,20A.74.74,0,0,1,0,20.7Z" transform="translate(0.7 0.7)"/>
                <path class="cls-4" d="M0,20.7a.7.7,0,0,1-.49-.2.7.7,0,0,1,0-1l20-20a.71.71,0,0,1,1,0,.72.72,0,0,1,0,1l-20,20A.74.74,0,0,1,0,20.7Z" transform="translate(0.7 0.7)"/>

    </g>
</symbol><symbol id="development" viewBox="0 0 83 83">

            <path class="cls-1" d="M71.73,73.19H62.2a1.5,1.5,0,1,1,0-3h8V18.24L55,3H10.69V33a1.5,1.5,0,0,1-3,0V1.5A1.5,1.5,0,0,1,9.19,0H55.62a1.5,1.5,0,0,1,1.06.44L72.79,16.56a1.5,1.5,0,0,1,.44,1.06V71.69A1.5,1.5,0,0,1,71.73,73.19Z"/>
            <path class="cls-1" d="M71.77,83H10.94C5,83,0,77.7,0,71.52V33a1.5,1.5,0,0,1,1.5-1.5H18.33a1.53,1.53,0,0,1,.75.2l10.74,6.19H62.2a1.5,1.5,0,0,1,1.5,1.5V71.93A8.08,8.08,0,0,0,71.77,80,8.26,8.26,0,0,0,80,71.93V48.61H71.73a1.5,1.5,0,0,1,0-3H81.5a1.5,1.5,0,0,1,1.5,1.5V71.93A11.17,11.17,0,0,1,71.83,83ZM3,34.46V71.52C3,76.08,6.64,80,11,80H64.2a11,11,0,0,1-3.5-8.07V40.85H29.42a1.53,1.53,0,0,1-.75-.2L17.93,34.46ZM51.84,60.92H39.93a1.5,1.5,0,1,1,0-3H51.84a1.5,1.5,0,0,1,0,3Zm0-9.66H39.93a1.5,1.5,0,0,1,0-3H51.84a1.5,1.5,0,0,1,0,3ZM71.73,19.12H55.64a1.5,1.5,0,0,1-1.5-1.5V1.5a1.5,1.5,0,0,1,3,0V16.12H71.73a1.5,1.5,0,0,1,0,3Z"/>

</symbol><symbol id="eco" viewBox="0 0 55.33 55.22">
            <path class="cls-1" d="M27.67,55.22A27.7,27.7,0,0,1,0,27.56a1,1,0,0,1,1-1H54.33a1,1,0,0,1,1,1A27.69,27.69,0,0,1,27.67,55.22ZM2,28.56a25.66,25.66,0,0,0,51.29,0ZM27.67,19.7H23.24a9.86,9.86,0,0,1-9.85-9.85V5.43a1,1,0,0,1,1-1h4.42a9.86,9.86,0,0,1,9.86,9.85V18.7A1,1,0,0,1,27.67,19.7ZM15.39,6.43V9.85a7.86,7.86,0,0,0,7.85,7.85h3.43V14.28a7.87,7.87,0,0,0-7.86-7.85Z"/>
            <path class="cls-1" d="M10.23,48.37a1,1,0,0,1-1-.87,1,1,0,0,1,.85-1.12L12,46.11l2.17-3.63a.67.67,0,0,0,.09-.34V37.3A.64.64,0,0,0,14.2,37a.64.64,0,0,0-.22-.24l-4.57-3A1,1,0,0,1,9,33.14l-1.41-5A1,1,0,0,1,8.27,27a1,1,0,0,1,1.24.68l1.31,4.61,4.27,2.84A2.66,2.66,0,0,1,16,36a2.61,2.61,0,0,1,.31,1.26v4.84a2.71,2.71,0,0,1-.37,1.37l-2.42,4a1,1,0,0,1-.72.48l-2.39.34ZM12.62,47h0ZM29,45.66a2.66,2.66,0,0,1-2.21-1.19l-2-3a2.57,2.57,0,0,1-.44-1.55,2.55,2.55,0,0,1,.53-1.52l4.4-5.88V27.7a1,1,0,1,1,2,0v5.17a1,1,0,0,1-.2.6l-4.6,6.14a.62.62,0,0,0,0,.76l2,3a.66.66,0,0,0,.9.19l14.83-9.37a.61.61,0,0,0,.2-.19.69.69,0,0,0,.1-.25l1.13-6.2a1,1,0,1,1,2,.36l-1.12,6.2a2.71,2.71,0,0,1-.42,1,2.57,2.57,0,0,1-.78.76L30.46,45.24A2.7,2.7,0,0,1,29,45.66Zm-1.36-17.1a1,1,0,0,1-1-1V19.12l-6.79-6.79a1,1,0,0,1,0-1.41,1,1,0,0,1,1.41,0l5.42,5.41a.86.86,0,0,1,0-.28V11a11,11,0,0,1,11-11h5.09a1,1,0,0,1,1,1V6.09a11,11,0,0,1-11,11H27.67a1.26,1.26,0,0,1-.28,0l1,1a1,1,0,0,1,.29.7v8.86A1,1,0,0,1,27.67,28.56Zm1-13.51h4.09a9,9,0,0,0,9-9V2H37.63a9,9,0,0,0-9,9Z"/>
            <path class="cls-1" d="M27.66,28.56a1,1,0,0,1-1-1V16.05a1,1,0,0,1,.3-.71L34,8.26a1,1,0,1,1,1.41,1.41l-6.79,6.79v11.1A1,1,0,0,1,27.66,28.56Z"/>
</symbol><symbol id="edit" viewBox="0 0 12.74 12.72">
            <path class="cls-1" d="M483.5,286.33h-8.17a1.63,1.63,0,0,1-1.17-.49,1.66,1.66,0,0,1-.49-1.17V276.5a1.64,1.64,0,0,1,.49-1.18,1.68,1.68,0,0,1,1.17-.49h4.09a.51.51,0,0,1,.5.5.5.5,0,0,1-.5.5h-4.09a.67.67,0,0,0-.66.67v8.17a.65.65,0,0,0,.66.66h8.17a.67.67,0,0,0,.67-.66v-4.09a.5.5,0,0,1,.5-.5.51.51,0,0,1,.5.5v4.09a1.66,1.66,0,0,1-.49,1.17A1.62,1.62,0,0,1,483.5,286.33Z" transform="translate(-473.67 -273.61)"/>
            <path class="cls-1" d="M477.67,282.83a.54.54,0,0,1-.36-.14.53.53,0,0,1-.13-.48l.59-2.33a.41.41,0,0,1,.13-.23l5.54-5.55h0a1.8,1.8,0,0,1,2.46,0,1.78,1.78,0,0,1,.51,1.23,1.76,1.76,0,0,1-.51,1.23l-5.55,5.54a.49.49,0,0,1-.23.14l-2.33.58Zm1-2.57-.35,1.39,1.4-.35,5.44-5.45a.71.71,0,0,0,.22-.52.74.74,0,0,0-1.26-.52Z" transform="translate(-473.67 -273.61)"/>
</symbol><symbol id="estimate" viewBox="0 0 78.31 78.31">

            <path class="cls-1" d="M27.28,54.72A17.91,17.91,0,1,1,45.19,36.81,17.92,17.92,0,0,1,27.28,54.72Zm0-32.81a14.91,14.91,0,1,0,14.91,14.9A14.91,14.91,0,0,0,27.28,21.91Z"/>
            <path class="cls-1" d="M24.94,43a1.49,1.49,0,0,1-1.06-.44l-4.69-4.69a1.49,1.49,0,0,1,0-2.12,1.51,1.51,0,0,1,2.12,0l3.63,3.63,8.31-8.32a1.5,1.5,0,1,1,2.12,2.13L26,42.56A1.51,1.51,0,0,1,24.94,43Z"/>
            <path class="cls-1" d="M1.5,64.09a1.47,1.47,0,0,1-1.06-.44,1.49,1.49,0,0,1,0-2.12L14.62,47.35a1.51,1.51,0,0,1,2.12,0,1.49,1.49,0,0,1,0,2.12L2.56,63.65A1.47,1.47,0,0,1,1.5,64.09Z"/>
            <path class="cls-1" d="M69.78,78.31H32a8.53,8.53,0,0,1-8.53-8.53V53.05a1.5,1.5,0,0,1,3,0V69.78a5.53,5.53,0,0,0,11.06,0V67.44a1.5,1.5,0,0,1,1.5-1.5H76.81a1.5,1.5,0,0,1,1.5,1.5v2.34A8.53,8.53,0,0,1,69.78,78.31Zm-31.32-3H69.78a5.54,5.54,0,0,0,5.53-5.53v-.84H40.5v.84A8.5,8.5,0,0,1,38.46,75.31Z"/>
            <path class="cls-1" d="M24.94,22.07a1.5,1.5,0,0,1-1.5-1.5V10.88a1.5,1.5,0,1,1,3,0v9.69A1.5,1.5,0,0,1,24.94,22.07Z"/>
            <path class="cls-1" d="M67.44,68.94a1.5,1.5,0,0,1-1.5-1.5V10.88A7.88,7.88,0,0,0,58.06,3H17.91a1.5,1.5,0,0,1,0-3H58.06A10.89,10.89,0,0,1,68.94,10.88V67.44A1.5,1.5,0,0,1,67.44,68.94Z"/>
            <path class="cls-1" d="M24.94,12.38H10.88a1.5,1.5,0,0,1-1.5-1.5V8.53a8.53,8.53,0,0,1,17.06,0v2.35A1.5,1.5,0,0,1,24.94,12.38Zm-12.56-3H23.44V8.53a5.53,5.53,0,0,0-11.06,0Z"/>

</symbol><symbol id="eye" viewBox="0 0 21.13 11.06">

            <path class="cls-1" d="M10.57,8.3a2.77,2.77,0,1,1,2.76-2.77A2.77,2.77,0,0,1,10.57,8.3Zm0-4.53a1.77,1.77,0,1,0,1.76,1.76A1.76,1.76,0,0,0,10.57,3.77Z"/>
            <path class="cls-1" d="M10.57,11.06c-5.72,0-10.1-5-10.29-5.2L0,5.53l.28-.32C.47,5,4.85,0,10.57,0S20.66,5,20.85,5.21l.28.32-.28.33C20.66,6.07,16.28,11.06,10.57,11.06ZM1.35,5.53c1.06,1.09,4.77,4.53,9.22,4.53s8.15-3.44,9.22-4.53C18.72,4.44,15,1,10.57,1S2.41,4.44,1.35,5.53Z"/>

</symbol><symbol id="investigation" viewBox="0 0 74.93 78.31">

            <path class="cls-1" d="M20.93,72.84a1.5,1.5,0,0,1-1.5-1.5V43.84a10.72,10.72,0,0,1,21.44,0V54.15a1.5,1.5,0,0,1-3,0V43.84a7.72,7.72,0,0,0-15.44,0v27.5A1.5,1.5,0,0,1,20.93,72.84Z"/>
            <path class="cls-1" d="M11.56,55.65a1.5,1.5,0,0,1-1.5-1.5V43.69A20.09,20.09,0,0,1,48.69,36a1.5,1.5,0,1,1-2.76,1.16,17.09,17.09,0,0,0-32.87,6.57V54.15A1.5,1.5,0,0,1,11.56,55.65Z"/>
            <path class="cls-1" d="M67.14,40.19a1.51,1.51,0,0,1-1.49-1.3A35.8,35.8,0,0,0,3.81,19.6a3,3,0,0,0,.71,4.68l.17.1a3,3,0,0,0,3.75-.57A29.43,29.43,0,0,1,58,34.13a1.5,1.5,0,1,1-2.83,1,26.44,26.44,0,0,0-44.54-9.28A6,6,0,0,1,3.19,27L3,26.88A6,6,0,0,1,1.6,17.57a38.8,38.8,0,0,1,67,20.91,1.49,1.49,0,0,1-1.28,1.69Z"/>
            <path class="cls-1" d="M30.15,68.47a1.5,1.5,0,0,1-1.5-1.5V42.9a1.5,1.5,0,0,1,3,0V67A1.5,1.5,0,0,1,30.15,68.47Z"/>
            <path class="cls-1" d="M56.43,78.31h-.19A21.08,21.08,0,0,1,37.93,57.45V41.28a1.5,1.5,0,0,1,1-1.41l17-6a1.56,1.56,0,0,1,1,0l17,6a1.5,1.5,0,0,1,1,1.41V57.45A21.08,21.08,0,0,1,56.62,78.3Zm-15.5-36V57.45A18.07,18.07,0,0,0,56.43,75.3a18.07,18.07,0,0,0,15.5-17.85V42.34l-15.5-5.5Z"/>
            <path class="cls-1" d="M56.11,61.47A1.49,1.49,0,0,1,55,61l-3.69-3.69a1.5,1.5,0,1,1,2.12-2.12l2.64,2.63L61.94,52a1.5,1.5,0,0,1,2.13,2.12L57.17,61A1.48,1.48,0,0,1,56.11,61.47Z"/>
            <path class="cls-1" d="M73.15,28.32a1.49,1.49,0,0,1-1.39-.95,44.53,44.53,0,0,0-23.6-24.5,1.48,1.48,0,0,1-.77-2,1.48,1.48,0,0,1,2-.77A47.46,47.46,0,0,1,74.55,26.26a1.52,1.52,0,0,1-1.4,2.06Z"/>

</symbol><symbol id="lock" viewBox="0 0 55.51 81.5">

            <path class="cls-1" d="M42.45,22.59a1.5,1.5,0,0,1-1.5-1.5v-6C41,8.41,35,3,27.76,3s-13.2,5.41-13.2,12.06v6a1.5,1.5,0,0,1-3,0V14.84C11.69,6.64,18.91,0,27.76,0S43.82,6.64,44,14.84v6.25A1.5,1.5,0,0,1,42.45,22.59Z"/>
            <path class="cls-1" d="M27.76,29.09A24.66,24.66,0,1,1,3.1,53.74,24.73,24.73,0,0,1,27.76,29.09Zm0-3.1A27.76,27.76,0,1,0,55.51,53.74,27.73,27.73,0,0,0,27.76,26Z"/>
            <path class="cls-1" d="M27.75,65.86A4.77,4.77,0,0,1,23,61.09v-5a7.67,7.67,0,0,1-3.27-6.41,8,8,0,0,1,16.06,0,7.68,7.68,0,0,1-3.26,6.41v5A4.78,4.78,0,0,1,27.75,65.86Zm0-21.23a5,5,0,0,0-5,5,4.67,4.67,0,0,0,2.44,4.21A1.51,1.51,0,0,1,26,55.21v5.88a1.77,1.77,0,1,0,3.53,0V55.21a1.51,1.51,0,0,1,.83-1.34,4.66,4.66,0,0,0,2.43-4.21A5,5,0,0,0,27.75,44.63Z"/>

</symbol><symbol id="logo" viewBox="0 0 72.71 72">

            <path class="cls-1" d="M14.11,7.61a36.35,36.35,0,0,1,44.51,0Zm4.6,9.93A25.53,25.53,0,0,0,31.33,61V72A36.37,36.37,0,0,1,5,17.54ZM61.89,36A25.41,25.41,0,0,0,54,17.54H67.69A36.36,36.36,0,0,1,41.63,72V61A25.52,25.52,0,0,0,61.89,36Z"/>
            <path class="cls-2" d="M14.11,7.61a36.35,36.35,0,0,1,44.51,0Zm4.6,9.93A25.53,25.53,0,0,0,31.33,61V72A36.37,36.37,0,0,1,5,17.54ZM61.89,36A25.41,25.41,0,0,0,54,17.54H67.69A36.36,36.36,0,0,1,41.63,72V61A25.52,25.52,0,0,0,61.89,36Z"/>
            <path class="cls-1" d="M25.09,17.54h6.24v9a10.72,10.72,0,0,0,0,18.91V57a21.69,21.69,0,0,1-6.24-39.49Zm16.56,9.13V17.54h6.11A21.68,21.68,0,0,1,41.65,57V45.27a10.7,10.7,0,0,0,0-18.6Z"/>
            <path class="cls-2" d="M25.09,17.54h6.24v9a10.72,10.72,0,0,0,0,18.91V57a21.69,21.69,0,0,1-6.24-39.49Zm16.56,9.13V17.54h6.11A21.68,21.68,0,0,1,41.65,57V45.27a10.7,10.7,0,0,0,0-18.6Z"/>

</symbol><symbol id="medcine" viewBox="0 0 52.21 49.07">
                <path class="cls-3" d="M44.83,49.07H7.38A7.39,7.39,0,0,1,0,41.69V16.79A7.39,7.39,0,0,1,7.38,9.41H44.83a7.39,7.39,0,0,1,7.38,7.38v24.9A7.39,7.39,0,0,1,44.83,49.07ZM7.38,11.41A5.39,5.39,0,0,0,2,16.79v24.9a5.38,5.38,0,0,0,5.38,5.38H44.83a5.39,5.39,0,0,0,5.38-5.38V16.79a5.39,5.39,0,0,0-5.38-5.38Z"/>
                <path class="cls-3" d="M35.54,11.41H16.66a1,1,0,0,1-1-1V4.78A4.79,4.79,0,0,1,20.44,0H31.77a4.78,4.78,0,0,1,4.77,4.78v5.63A1,1,0,0,1,35.54,11.41Zm-17.88-2H34.54V4.78A2.78,2.78,0,0,0,31.77,2H20.44a2.79,2.79,0,0,0-2.78,2.78Z"/>
                <path class="cls-3" d="M29.24,39.66H23a1,1,0,0,1-1-1V33.38H16.69a1,1,0,0,1-1-1V26.1a1,1,0,0,1,1-1H22V19.83a1,1,0,0,1,1-1h6.28a1,1,0,0,1,1,1V25.1h5.28a1,1,0,0,1,1,1v6.28a1,1,0,0,1-1,1H30.24v5.28A1,1,0,0,1,29.24,39.66Zm-5.28-2h4.28V32.38a1,1,0,0,1,1-1h5.28V27.1H29.24a1,1,0,0,1-1-1V20.83H24V26.1a1,1,0,0,1-1,1H17.69v4.28H23a1,1,0,0,1,1,1Z"/>
                <path class="cls-3" d="M44.83,49.07H7.38a1,1,0,0,1-1-1V10.41a1,1,0,0,1,1-1H44.83a1,1,0,0,1,1,1V48.07A1,1,0,0,1,44.83,49.07Zm-36.45-2H43.83V11.41H8.38Z"/>
</symbol><symbol id="mintrud" viewBox="0 0 71.75 78.31">
    <path class="cls-3" d="M65.56,37.38H6.19a1.5,1.5,0,0,1-1.5-1.5V34.31a31.22,31.22,0,0,1,25.2-30.6,1.5,1.5,0,1,1,.57,3A28.2,28.2,0,0,0,7.69,34.31v.07H64.06v-.07A28.2,28.2,0,0,0,41.29,6.66a1.5,1.5,0,0,1,.57-2.95,31.22,31.22,0,0,1,25.2,30.6v1.57A1.5,1.5,0,0,1,65.56,37.38Z"/>
    <path class="cls-3" d="M60.88,78.31H45.5a6.22,6.22,0,0,1-5.87-4.23l-1.06-3.2a2.82,2.82,0,0,0-1-1.41,2.87,2.87,0,0,0-3.31,0,2.75,2.75,0,0,0-1,1.41l-1.07,3.2a6.18,6.18,0,0,1-2.26,3.06,6.1,6.1,0,0,1-3.61,1.17H10.88a6.19,6.19,0,0,1-6.19-6.19V59.62a6.19,6.19,0,0,1,6.19-6.18h50a6.18,6.18,0,0,1,6.18,6.18v12.5A6.19,6.19,0,0,1,60.88,78.31Zm-25-12.37a5.82,5.82,0,0,1,5.53,4l1.07,3.2a3.11,3.11,0,0,0,1.16,1.58,3.2,3.2,0,0,0,1.86.6H60.88a3.19,3.19,0,0,0,3.18-3.19V59.62a3.19,3.19,0,0,0-3.18-3.18h-50a3.19,3.19,0,0,0-3.19,3.18v12.5a3.19,3.19,0,0,0,3.19,3.19H26.25a3.2,3.2,0,0,0,1.86-.6,3.11,3.11,0,0,0,1.16-1.58l1.07-3.2a5.82,5.82,0,0,1,5.54-4Z"/>
    <path class="cls-3" d="M65.56,46.75H6.19a6.19,6.19,0,1,1,0-12.37H65.56a6.19,6.19,0,1,1,0,12.37ZM6.19,37.38a3.19,3.19,0,1,0,0,6.37H65.56a3.19,3.19,0,1,0,0-6.37Z"/>
    <path class="cls-3" d="M49.94,21.75a1.52,1.52,0,0,1-.59-.12,1.49,1.49,0,0,1-.79-2l4-9.43a1.5,1.5,0,0,1,2.76,1.18l-4,9.43A1.51,1.51,0,0,1,49.94,21.75Z"/>
    <path class="cls-3" d="M21.81,21.75a1.51,1.51,0,0,1-1.38-.91l-4-9.43a1.5,1.5,0,1,1,2.76-1.18l4,9.43a1.5,1.5,0,0,1-.79,2A1.52,1.52,0,0,1,21.81,21.75Z"/>
    <path class="cls-3" d="M39.78,18.62h-.22A1.5,1.5,0,0,1,38.3,16.9L40.38,3h-9l2.08,13.9a1.5,1.5,0,1,1-3,.45L28.14,1.72A1.5,1.5,0,0,1,29.62,0h12.5a1.5,1.5,0,0,1,1.49,1.72L41.26,17.35A1.49,1.49,0,0,1,39.78,18.62Z"/>
</symbol><symbol id="portfel" viewBox="0 0 70 70.1">

            <path class="cls-1" d="M63,16.9a4.13,4.13,0,0,1,4.2,4.2v42A4.13,4.13,0,0,1,63,67.3H7a4.13,4.13,0,0,1-4.2-4.2v-42A4.13,4.13,0,0,1,7,16.9Zm0-2.8H7a6.93,6.93,0,0,0-7,7v42a6.93,6.93,0,0,0,7,7H63a6.93,6.93,0,0,0,7-7v-42A6.93,6.93,0,0,0,63,14.1Z"/>
            <path class="cls-1" d="M50,9.67a1.5,1.5,0,0,1-1.5-1.5A5.6,5.6,0,0,0,43.18,3H26.82A5.6,5.6,0,0,0,21.5,8.17a1.5,1.5,0,1,1-3,0A8.57,8.57,0,0,1,26.82,0H43.18A8.57,8.57,0,0,1,51.5,8.17,1.5,1.5,0,0,1,50,9.67Z"/>
            <path class="cls-1" d="M35,43a1.5,1.5,0,0,1-.62-.13l-33.33-15a1.5,1.5,0,0,1,1.23-2.74L35,39.85,67.72,25.13A1.5,1.5,0,0,1,69,27.87l-33.34,15A1.42,1.42,0,0,1,35,43Z"/>
            <path class="cls-1" d="M45,54.67H25a1.5,1.5,0,0,1-1.5-1.5V46.5a1.5,1.5,0,0,1,3,0v5.17h17V46.5a1.5,1.5,0,0,1,3,0v6.67A1.5,1.5,0,0,1,45,54.67Z"/>

</symbol><symbol id="umbrella" viewBox="0 0 83 83">

            <path class="cls-1" d="M81.5,45A1.5,1.5,0,0,1,80,43.5c0-2.62-3.89-4.83-8.5-4.83S63,40.88,63,43.5a1.5,1.5,0,0,1-3,0c0-2.62-3.89-4.83-8.5-4.83S43,40.88,43,43.5a1.5,1.5,0,0,1-3,0c0-2.62-3.89-4.83-8.5-4.83S23,40.88,23,43.5a1.5,1.5,0,0,1-3,0c0-2.62-3.89-4.83-8.5-4.83S3,40.88,3,43.5a1.5,1.5,0,0,1-3,0C0,25,18.62,10,41.5,10S83,25,83,43.5A1.5,1.5,0,0,1,81.5,45Zm-30-9.33c4.33,0,8,1.55,10,3.9,2-2.35,5.67-3.9,10-3.9a14.82,14.82,0,0,1,7.8,2C75.87,23.65,60.22,13,41.5,13S7.13,23.65,3.7,37.7a14.82,14.82,0,0,1,7.8-2c4.33,0,8,1.55,10,3.9,2-2.35,5.67-3.9,10-3.9s8,1.55,10,3.9C43.46,37.22,47.17,35.67,51.5,35.67Z"/>
            <path class="cls-1" d="M50.67,83C44.88,83,40,78.5,40,73.17V51.5a1.5,1.5,0,0,1,3,0V73.17C43,76.81,46.58,80,50.67,80a6.6,6.6,0,0,0,6.5-6.83,1.5,1.5,0,0,1,3,0A9.57,9.57,0,0,1,50.67,83Z"/>
            <path class="cls-1" d="M41.5,6.33A1.5,1.5,0,0,1,40,4.83V1.5a1.5,1.5,0,0,1,3,0V4.83A1.5,1.5,0,0,1,41.5,6.33Z"/>

</symbol><symbol id="user" viewBox="0 0 12.01 12.67">
            <path class="cls-1" d="M11.34,12.67a.67.67,0,0,1-.67-.67V10.67a2,2,0,0,0-.59-1.41,2,2,0,0,0-1.41-.59H3.34a2,2,0,0,0-1.41.59,2,2,0,0,0-.59,1.41V12A.67.67,0,0,1,0,12V10.67A3.35,3.35,0,0,1,3.34,7.33H8.67a3.36,3.36,0,0,1,2.36,1,3.32,3.32,0,0,1,1,2.36V12A.67.67,0,0,1,11.34,12.67Z"/>
            <path class="cls-2" d="M11.34,12.67a.67.67,0,0,1-.67-.67V10.67a2,2,0,0,0-.59-1.41,2,2,0,0,0-1.41-.59H3.34a2,2,0,0,0-1.41.59,2,2,0,0,0-.59,1.41V12A.67.67,0,0,1,0,12V10.67A3.35,3.35,0,0,1,3.34,7.33H8.67a3.36,3.36,0,0,1,2.36,1,3.32,3.32,0,0,1,1,2.36V12A.67.67,0,0,1,11.34,12.67Z"/>
            <path class="cls-1" d="M6,6.67A3.34,3.34,0,1,1,9.34,3.34,3.34,3.34,0,0,1,6,6.67ZM6,1.34a2,2,0,1,0,2,2A2,2,0,0,0,6,1.34Z"/>
            <path class="cls-2" d="M6,6.67A3.34,3.34,0,1,1,9.34,3.34,3.34,3.34,0,0,1,6,6.67ZM6,1.34a2,2,0,1,0,2,2A2,2,0,0,0,6,1.34Z"/>
</symbol></svg>