<svg xmlns="http://www.w3.org/2000/svg" viewBox="0 0 78.31 78.29">
            <path class="cls-1"
                  d="M43.84,18.61a1.52,1.52,0,0,1-1.45-1.87L45.3,5.11A9.86,9.86,0,0,0,33,5.11l2.9,11.63a1.5,1.5,0,0,1-2.91.73L29.89,5a1.51,1.51,0,0,1,.39-1.43A12.9,12.9,0,0,1,48,3.54,1.51,1.51,0,0,1,48.42,5L45.3,17.47A1.51,1.51,0,0,1,43.84,18.61Z"/>
            <path class="cls-1"
                  d="M72.12,43.61H6.19a6.19,6.19,0,1,1,0-12.38H72.12a6.19,6.19,0,0,1,0,12.38ZM6.19,34.23a3.19,3.19,0,0,0,0,6.38H72.12a3.19,3.19,0,0,0,0-6.38Z"/>
            <path class="cls-1"
                  d="M9.63,34.23H9.47a1.49,1.49,0,0,1-1.33-1.65,31.25,31.25,0,0,1,23.45-27,1.5,1.5,0,1,1,.72,2.91A28.26,28.26,0,0,0,11.12,32.89,1.5,1.5,0,0,1,9.63,34.23Z"/>
            <path class="cls-1"
                  d="M68.68,34.23a1.5,1.5,0,0,1-1.49-1.34A28.25,28.25,0,0,0,46,8.5a1.5,1.5,0,1,1,.72-2.91,31.23,31.23,0,0,1,23.45,27,1.49,1.49,0,0,1-1.33,1.65Z"/>
            <path class="cls-1"
                  d="M45.41,78.29H32.91a1.5,1.5,0,0,1-1.5-1.5v-4.3a28,28,0,0,1-5.83-2.41l-3,3a1.49,1.49,0,0,1-2.12,0l-8.84-8.84a1.5,1.5,0,0,1,0-2.12l3-3a28,28,0,0,1-2.41-5.83H7.91a1.5,1.5,0,0,1-1.5-1.5V42.11a1.5,1.5,0,0,1,3,0v8.18h3.95a1.5,1.5,0,0,1,1.46,1.15,25.09,25.09,0,0,0,3,7.14,1.5,1.5,0,0,1-.22,1.84l-2.8,2.8,6.72,6.72,2.8-2.8a1.5,1.5,0,0,1,1.84-.22,25,25,0,0,0,7.14,3,1.5,1.5,0,0,1,1.15,1.45v4h9.5v-4a1.49,1.49,0,0,1,1.14-1.45,24.85,24.85,0,0,0,7.14-3,1.5,1.5,0,0,1,1.84.22l2.8,2.8,6.72-6.72-2.8-2.8a1.5,1.5,0,0,1-.22-1.84,24.81,24.81,0,0,0,3-7.14A1.51,1.51,0,0,1,65,50.29h4V42.11a1.5,1.5,0,0,1,3,0v9.68a1.5,1.5,0,0,1-1.5,1.5H66.1a28,28,0,0,1-2.41,5.83l3,3a1.49,1.49,0,0,1,0,2.12l-8.84,8.84a1.49,1.49,0,0,1-2.12,0l-3-3a28.14,28.14,0,0,1-5.82,2.41v4.3A1.5,1.5,0,0,1,45.41,78.29Z"/>
            <path class="cls-1"
                  d="M39.16,64.23A18.71,18.71,0,0,1,20.47,45.54a18.91,18.91,0,0,1,.38-3.74,1.5,1.5,0,0,1,1.78-1.16,1.49,1.49,0,0,1,1.16,1.77,15.68,15.68,0,1,0,31.05,3.13,15,15,0,0,0-.32-3.13,1.5,1.5,0,0,1,2.94-.61,18.68,18.68,0,0,1-18.3,22.43Z"/>

</svg>