<svg xmlns="http://www.w3.org/2000/svg" viewBox="0 0 78.31 78.31">

            <path class="cls-1"
                  d="M65.56,62.69H6.19A6.2,6.2,0,0,1,0,56.5V15.56A6.19,6.19,0,0,1,6.19,9.38h5a1.5,1.5,0,0,1,0,3h-5A3.18,3.18,0,0,0,3,15.56V56.5a3.19,3.19,0,0,0,3.19,3.19H65.56a3.19,3.19,0,0,0,3.19-3.19V42.12a1.5,1.5,0,0,1,3,0V56.5A6.2,6.2,0,0,1,65.56,62.69Z"/>
            <path class="cls-1"
                  d="M49.94,78.31H21.81a1.5,1.5,0,0,1-1.35-.85,1.49,1.49,0,0,1,.18-1.58L22,74.16a20.8,20.8,0,0,0,4.55-13,1.5,1.5,0,0,1,1.5-1.5H43.69a1.5,1.5,0,0,1,1.5,1.5,20.8,20.8,0,0,0,4.55,13l1.37,1.72a1.49,1.49,0,0,1,.18,1.58A1.5,1.5,0,0,1,49.94,78.31Zm-25-3H46.84a23.87,23.87,0,0,1-4.6-12.62H29.51A23.87,23.87,0,0,1,24.91,75.31Z"/>
            <path class="cls-1" d="M54.62,78.31H17.12a1.5,1.5,0,0,1,0-3h37.5a1.5,1.5,0,1,1,0,3Z"/>
            <path class="cls-1" d="M70.25,53H1.5a1.5,1.5,0,0,1,0-3H70.25a1.5,1.5,0,0,1,0,3Z"/>
            <path class="cls-1"
                  d="M76.81,43.62H11.19a1.5,1.5,0,0,1-1.5-1.5V1.5A1.5,1.5,0,0,1,11.19,0H76.81a1.5,1.5,0,0,1,1.5,1.5V42.12A1.5,1.5,0,0,1,76.81,43.62Zm-64.12-3H75.31V3H12.69Z"/>
            <path class="cls-1"
                  d="M48.69,34.25H20.56a1.5,1.5,0,0,1-1.5-1.5V18.69a1.5,1.5,0,0,1,1.5-1.5h7.88V10.88a1.5,1.5,0,0,1,1.5-1.5h9.37a1.5,1.5,0,0,1,1.5,1.5V23.44h7.88a1.5,1.5,0,0,1,1.5,1.5v7.81A1.5,1.5,0,0,1,48.69,34.25Zm-7.88-3h6.38V26.44H40.81Zm-9.37,0h6.37V12.38H31.44Zm-9.38,0h6.38V20.19H22.06Z"/>
            <path class="cls-1" d="M67.44,21.75H58.06a1.5,1.5,0,0,1,0-3h9.38a1.5,1.5,0,0,1,0,3Z"/>
            <path class="cls-1" d="M67.44,12.38H58.06a1.5,1.5,0,0,1,0-3h9.38a1.5,1.5,0,0,1,0,3Z"/>

</svg>