<svg xmlns="http://www.w3.org/2000/svg" viewBox="0 0 37 37">

            <path class="cls-1"
                  d="M18.5,37A18.5,18.5,0,1,1,37,18.5,18.52,18.52,0,0,1,18.5,37Zm0-36A17.5,17.5,0,1,0,36,18.5,17.52,17.52,0,0,0,18.5,1Z"/>
            <path class="cls-2"
                  d="M18.5,37A18.5,18.5,0,1,1,37,18.5,18.52,18.52,0,0,1,18.5,37Zm0-36A17.5,17.5,0,1,0,36,18.5,17.52,17.52,0,0,0,18.5,1Z"/>
            <path class="cls-1"
                  d="M25.5,23.5a.54.54,0,0,1-.22-.05l-7-3.5A.51.51,0,0,1,18,19.5V9a.5.5,0,0,1,1,0V19.19l6.72,3.36a.5.5,0,0,1-.22.95Z"/>
            <path class="cls-2"
                  d="M25.5,23.5a.54.54,0,0,1-.22-.05l-7-3.5A.51.51,0,0,1,18,19.5V9a.5.5,0,0,1,1,0V19.19l6.72,3.36a.5.5,0,0,1-.22.95Z"/>

</svg>