<svg xmlns="http://www.w3.org/2000/svg" viewBox="0 0 83 83">

            <path class="cls-1"
                  d="M71.73,73.19H62.2a1.5,1.5,0,1,1,0-3h8V18.24L55,3H10.69V33a1.5,1.5,0,0,1-3,0V1.5A1.5,1.5,0,0,1,9.19,0H55.62a1.5,1.5,0,0,1,1.06.44L72.79,16.56a1.5,1.5,0,0,1,.44,1.06V71.69A1.5,1.5,0,0,1,71.73,73.19Z"/>
            <path class="cls-1"
                  d="M71.77,83H10.94C5,83,0,77.7,0,71.52V33a1.5,1.5,0,0,1,1.5-1.5H18.33a1.53,1.53,0,0,1,.75.2l10.74,6.19H62.2a1.5,1.5,0,0,1,1.5,1.5V71.93A8.08,8.08,0,0,0,71.77,80,8.26,8.26,0,0,0,80,71.93V48.61H71.73a1.5,1.5,0,0,1,0-3H81.5a1.5,1.5,0,0,1,1.5,1.5V71.93A11.17,11.17,0,0,1,71.83,83ZM3,34.46V71.52C3,76.08,6.64,80,11,80H64.2a11,11,0,0,1-3.5-8.07V40.85H29.42a1.53,1.53,0,0,1-.75-.2L17.93,34.46ZM51.84,60.92H39.93a1.5,1.5,0,1,1,0-3H51.84a1.5,1.5,0,0,1,0,3Zm0-9.66H39.93a1.5,1.5,0,0,1,0-3H51.84a1.5,1.5,0,0,1,0,3ZM71.73,19.12H55.64a1.5,1.5,0,0,1-1.5-1.5V1.5a1.5,1.5,0,0,1,3,0V16.12H71.73a1.5,1.5,0,0,1,0,3Z"/>

</svg>