<svg xmlns="http://www.w3.org/2000/svg" viewBox="0 0 12.74 12.72">
            <path class="cls-1"
                  d="M483.5,286.33h-8.17a1.63,1.63,0,0,1-1.17-.49,1.66,1.66,0,0,1-.49-1.17V276.5a1.64,1.64,0,0,1,.49-1.18,1.68,1.68,0,0,1,1.17-.49h4.09a.51.51,0,0,1,.5.5.5.5,0,0,1-.5.5h-4.09a.67.67,0,0,0-.66.67v8.17a.65.65,0,0,0,.66.66h8.17a.67.67,0,0,0,.67-.66v-4.09a.5.5,0,0,1,.5-.5.51.51,0,0,1,.5.5v4.09a1.66,1.66,0,0,1-.49,1.17A1.62,1.62,0,0,1,483.5,286.33Z"
                  transform="translate(-473.67 -273.61)"/>
            <path class="cls-1"
                  d="M477.67,282.83a.54.54,0,0,1-.36-.14.53.53,0,0,1-.13-.48l.59-2.33a.41.41,0,0,1,.13-.23l5.54-5.55h0a1.8,1.8,0,0,1,2.46,0,1.78,1.78,0,0,1,.51,1.23,1.76,1.76,0,0,1-.51,1.23l-5.55,5.54a.49.49,0,0,1-.23.14l-2.33.58Zm1-2.57-.35,1.39,1.4-.35,5.44-5.45a.71.71,0,0,0,.22-.52.74.74,0,0,0-1.26-.52Z"
                  transform="translate(-473.67 -273.61)"/>
</svg>