<svg xmlns="http://www.w3.org/2000/svg" viewBox="0 0 21.13 11.06">

            <path class="cls-1"
                  d="M10.57,8.3a2.77,2.77,0,1,1,2.76-2.77A2.77,2.77,0,0,1,10.57,8.3Zm0-4.53a1.77,1.77,0,1,0,1.76,1.76A1.76,1.76,0,0,0,10.57,3.77Z"/>
            <path class="cls-1"
                  d="M10.57,11.06c-5.72,0-10.1-5-10.29-5.2L0,5.53l.28-.32C.47,5,4.85,0,10.57,0S20.66,5,20.85,5.21l.28.32-.28.33C20.66,6.07,16.28,11.06,10.57,11.06ZM1.35,5.53c1.06,1.09,4.77,4.53,9.22,4.53s8.15-3.44,9.22-4.53C18.72,4.44,15,1,10.57,1S2.41,4.44,1.35,5.53Z"/>

</svg>