<svg xmlns="http://www.w3.org/2000/svg" viewBox="0 0 55.51 81.5">

            <path class="cls-1"
                  d="M42.45,22.59a1.5,1.5,0,0,1-1.5-1.5v-6C41,8.41,35,3,27.76,3s-13.2,5.41-13.2,12.06v6a1.5,1.5,0,0,1-3,0V14.84C11.69,6.64,18.91,0,27.76,0S43.82,6.64,44,14.84v6.25A1.5,1.5,0,0,1,42.45,22.59Z"/>
            <path class="cls-1"
                  d="M27.76,29.09A24.66,24.66,0,1,1,3.1,53.74,24.73,24.73,0,0,1,27.76,29.09Zm0-3.1A27.76,27.76,0,1,0,55.51,53.74,27.73,27.73,0,0,0,27.76,26Z"/>
            <path class="cls-1"
                  d="M27.75,65.86A4.77,4.77,0,0,1,23,61.09v-5a7.67,7.67,0,0,1-3.27-6.41,8,8,0,0,1,16.06,0,7.68,7.68,0,0,1-3.26,6.41v5A4.78,4.78,0,0,1,27.75,65.86Zm0-21.23a5,5,0,0,0-5,5,4.67,4.67,0,0,0,2.44,4.21A1.51,1.51,0,0,1,26,55.21v5.88a1.77,1.77,0,1,0,3.53,0V55.21a1.51,1.51,0,0,1,.83-1.34,4.66,4.66,0,0,0,2.43-4.21A5,5,0,0,0,27.75,44.63Z"/>

</svg>