<svg width="80" height="80" viewBox="0 0 80 80" fill="none" xmlns="http://www.w3.org/2000/svg">
<mask id="mask0_542_12256" style="mask-type:luminance" maskUnits="userSpaceOnUse" x="0" y="0" width="80" height="80">
<path d="M78.4998 78.5V1.50024H1.5V78.5H78.4998Z" fill="white" stroke="white" stroke-width="3"/>
</mask>
<g mask="url(#mask0_542_12256)">
<path d="M34.3026 6.02837C20.6345 8.68711 10.3125 20.7105 10.3125 35.1561V36.7188H69.6873V35.1561C69.6873 20.7105 59.3653 8.68711 45.6972 6.02837" stroke="white" stroke-width="3" stroke-miterlimit="10" stroke-linecap="round" stroke-linejoin="round"/>
<path d="M10.3125 60.4688V72.9688C10.3125 75.5577 12.4111 77.6562 15 77.6562H30.3713C31.3552 77.6562 32.3141 77.3467 33.1122 76.7715C33.9103 76.1962 34.5072 75.3844 34.8184 74.4511L35.8866 71.246C36.1744 70.3827 36.7265 69.6318 37.4648 69.0997C38.203 68.5676 39.0899 68.2813 39.9999 68.2813C40.9099 68.2813 41.7968 68.5676 42.5351 69.0997C43.2733 69.6318 43.8254 70.3827 44.1132 71.246L45.1815 74.4511C45.4926 75.3844 46.0895 76.1962 46.8876 76.7715C47.6858 77.3467 48.6447 77.6562 49.6285 77.6562H64.9998C67.5887 77.6562 69.6873 75.5577 69.6873 72.9688V60.4688C69.6873 57.8799 67.5887 55.7813 64.9998 55.7813H15C12.4111 55.7813 10.3125 57.8799 10.3125 60.4688Z" stroke="white" stroke-width="3" stroke-miterlimit="10" stroke-linecap="round" stroke-linejoin="round"/>
<path d="M69.6873 46.0938H10.3125C7.72359 46.0938 5.625 43.9952 5.625 41.4063C5.625 38.8174 7.72359 36.7188 10.3125 36.7188H69.6873C72.2762 36.7188 74.3748 38.8174 74.3748 41.4063C74.3748 43.9952 72.2762 46.0938 69.6873 46.0938Z" stroke="white" stroke-width="3" stroke-miterlimit="10" stroke-linecap="round" stroke-linejoin="round"/>
<path d="M54.0625 21.0938L58.1037 11.6644" stroke="white" stroke-width="3" stroke-miterlimit="10" stroke-linecap="round" stroke-linejoin="round"/>
<path d="M21.8961 11.6644L25.9373 21.0938" stroke="white" stroke-width="3" stroke-miterlimit="10" stroke-linecap="round" stroke-linejoin="round"/>
<path d="M36.0937 17.9688L33.75 2.3438H46.25L43.9062 17.9688" stroke="white" stroke-width="3" stroke-miterlimit="10" stroke-linecap="round" stroke-linejoin="round"/>
</g>
</svg>
