<svg xmlns="http://www.w3.org/2000/svg" viewBox="0 0 83 83">

            <path class="cls-1"
                  d="M81.5,45A1.5,1.5,0,0,1,80,43.5c0-2.62-3.89-4.83-8.5-4.83S63,40.88,63,43.5a1.5,1.5,0,0,1-3,0c0-2.62-3.89-4.83-8.5-4.83S43,40.88,43,43.5a1.5,1.5,0,0,1-3,0c0-2.62-3.89-4.83-8.5-4.83S23,40.88,23,43.5a1.5,1.5,0,0,1-3,0c0-2.62-3.89-4.83-8.5-4.83S3,40.88,3,43.5a1.5,1.5,0,0,1-3,0C0,25,18.62,10,41.5,10S83,25,83,43.5A1.5,1.5,0,0,1,81.5,45Zm-30-9.33c4.33,0,8,1.55,10,3.9,2-2.35,5.67-3.9,10-3.9a14.82,14.82,0,0,1,7.8,2C75.87,23.65,60.22,13,41.5,13S7.13,23.65,3.7,37.7a14.82,14.82,0,0,1,7.8-2c4.33,0,8,1.55,10,3.9,2-2.35,5.67-3.9,10-3.9s8,1.55,10,3.9C43.46,37.22,47.17,35.67,51.5,35.67Z"/>
            <path class="cls-1"
                  d="M50.67,83C44.88,83,40,78.5,40,73.17V51.5a1.5,1.5,0,0,1,3,0V73.17C43,76.81,46.58,80,50.67,80a6.6,6.6,0,0,0,6.5-6.83,1.5,1.5,0,0,1,3,0A9.57,9.57,0,0,1,50.67,83Z"/>
            <path class="cls-1"
                  d="M41.5,6.33A1.5,1.5,0,0,1,40,4.83V1.5a1.5,1.5,0,0,1,3,0V4.83A1.5,1.5,0,0,1,41.5,6.33Z"/>

</svg>