<svg xmlns="http://www.w3.org/2000/svg" viewBox="0 0 12.01 12.67">
            <path class="cls-1"
                  d="M11.34,12.67a.67.67,0,0,1-.67-.67V10.67a2,2,0,0,0-.59-1.41,2,2,0,0,0-1.41-.59H3.34a2,2,0,0,0-1.41.59,2,2,0,0,0-.59,1.41V12A.67.67,0,0,1,0,12V10.67A3.35,3.35,0,0,1,3.34,7.33H8.67a3.36,3.36,0,0,1,2.36,1,3.32,3.32,0,0,1,1,2.36V12A.67.67,0,0,1,11.34,12.67Z"/>
            <path class="cls-2"
                  d="M11.34,12.67a.67.67,0,0,1-.67-.67V10.67a2,2,0,0,0-.59-1.41,2,2,0,0,0-1.41-.59H3.34a2,2,0,0,0-1.41.59,2,2,0,0,0-.59,1.41V12A.67.67,0,0,1,0,12V10.67A3.35,3.35,0,0,1,3.34,7.33H8.67a3.36,3.36,0,0,1,2.36,1,3.32,3.32,0,0,1,1,2.36V12A.67.67,0,0,1,11.34,12.67Z"/>
            <path class="cls-1"
                  d="M6,6.67A3.34,3.34,0,1,1,9.34,3.34,3.34,3.34,0,0,1,6,6.67ZM6,1.34a2,2,0,1,0,2,2A2,2,0,0,0,6,1.34Z"/>
            <path class="cls-2"
                  d="M6,6.67A3.34,3.34,0,1,1,9.34,3.34,3.34,3.34,0,0,1,6,6.67ZM6,1.34a2,2,0,1,0,2,2A2,2,0,0,0,6,1.34Z"/>
</svg>