<svg xmlns="http://www.w3.org/2000/svg" xml:space="preserve" id="Слой_1" x="0" y="0" style="enable-background:new 0 0 500 500" version="1.1" viewBox="0 0 500 500"><style>.st0,.st1{opacity:.5;fill-rule:evenodd;clip-rule:evenodd;fill:#33a73a}.st1{fill:#58d41d;fill-opacity:.1}</style><path d="M203.5 193.7c12.3-9.5 27.7-15.2 44.5-15.2s32.2 5.7 44.5 15.2h-89zm9.2 19.9c-9.7 9.3-15.8 22.4-15.8 36.9 0 24.8 17.6 45.4 41 50.1v22c-35.4-4.9-62.7-35.3-62.7-72.1 0-13.5 3.7-26.1 10-36.9h27.5zm86.4 36.8c0-14.5-6-27.6-15.8-36.9h27.4c6.4 10.8 10 23.4 10 36.9 0 36.6-27 66.8-62.1 71.9v-22c23.1-4.8 40.5-25.3 40.5-49.9z" class="st0"/><path d="M203.5 193.7c12.3-9.5 27.7-15.2 44.5-15.2s32.2 5.7 44.5 15.2h-89zm9.2 19.9c-9.7 9.3-15.8 22.4-15.8 36.9 0 24.8 17.6 45.4 41 50.1v22c-35.4-4.9-62.7-35.3-62.7-72.1 0-13.5 3.7-26.1 10-36.9h27.5zm86.4 36.8c0-14.5-6-27.6-15.8-36.9h27.4c6.4 10.8 10 23.4 10 36.9 0 36.6-27 66.8-62.1 71.9v-22c23.1-4.8 40.5-25.3 40.5-49.9z" class="st1"/><path d="M225.5 213.6H238v18c-6.8 3.6-11.3 10.7-11.3 18.9s4.6 15.3 11.3 18.9v23.2c-18.9-4.6-33-21.7-33-42.1-.1-15.6 8.1-29.3 20.5-36.9zm33.1 18.2v-18.3h12.2c12.3 7.6 20.5 21.3 20.5 36.9 0 20.3-14 37.4-32.8 42V269c6.5-3.7 10.8-10.6 10.8-18.6.1-8-4.2-14.9-10.7-18.6z" class="st0"/><path d="M225.5 213.6H238v18c-6.8 3.6-11.3 10.7-11.3 18.9s4.6 15.3 11.3 18.9v23.2c-18.9-4.6-33-21.7-33-42.1-.1-15.6 8.1-29.3 20.5-36.9zm33.1 18.2v-18.3h12.2c12.3 7.6 20.5 21.3 20.5 36.9 0 20.3-14 37.4-32.8 42V269c6.5-3.7 10.8-10.6 10.8-18.6.1-8-4.2-14.9-10.7-18.6z" class="st1"/></svg>