<svg width="33" height="46" viewBox="0 0 33 46" fill="none" xmlns="http://www.w3.org/2000/svg">
<path d="M14.6955 45.0719C2.30071 26.1473 0 24.2051 0 17.25C0 7.72306 7.33301 0 16.3788 0C25.4246 0 32.7576 7.72306 32.7576 17.25C32.7576 24.2051 30.4569 26.1473 18.062 45.0719C17.2487 46.3094 15.5088 46.3093 14.6955 45.0719Z" fill="#33A73A"/>
<path d="M14.6955 45.0719C2.30071 26.1473 0 24.2051 0 17.25C0 7.72306 7.33301 0 16.3788 0C25.4246 0 32.7576 7.72306 32.7576 17.25C32.7576 24.2051 30.4569 26.1473 18.062 45.0719C17.2487 46.3094 15.5088 46.3093 14.6955 45.0719Z" fill="#58D41D" fill-opacity="0.1"/>
<path fill-rule="evenodd" clip-rule="evenodd" d="M9.81113 8.55558C11.6568 7.12395 13.9745 6.27271 16.4895 6.27271C19.0046 6.27271 21.3223 7.12395 23.1679 8.55558H9.81113ZM11.1925 11.5349C9.73374 12.9279 8.82833 14.8935 8.82833 17.068C8.82833 20.7825 11.4711 23.8779 14.9805 24.5821V27.8788C9.66796 27.1397 5.57812 22.5817 5.57812 17.068C5.57812 15.0482 6.12756 13.1562 7.08328 11.5349H11.1925ZM24.1507 17.068C24.1507 14.8935 23.2453 12.9279 21.7866 11.5349H25.8919C26.8476 13.1562 27.3971 15.0482 27.3971 17.068C27.3971 22.5546 23.3459 27.0972 18.0721 27.8633V24.5628C21.5467 23.8354 24.1507 20.7554 24.1507 17.068Z" fill="white"/>
<path fill-rule="evenodd" clip-rule="evenodd" d="M13.1034 11.5349H14.9761V14.2318C13.9624 14.7735 13.2736 15.8376 13.2736 17.068C13.2736 18.2984 13.9624 19.3625 14.9761 19.9042V23.3865C12.1361 22.6978 10.0234 20.1286 10.0234 17.068C10.0234 14.7309 11.2539 12.6802 13.1034 11.5349ZM18.0716 14.2744V11.5349H19.9056C21.7513 12.6802 22.9856 14.7309 22.9856 17.068C22.9856 20.117 20.8923 22.6746 18.0716 23.3749V19.8577C19.0428 19.3044 19.6967 18.2636 19.6967 17.0641C19.6967 15.8646 19.0428 14.8277 18.0716 14.2744Z" fill="white"/>
</svg>
