<svg fill="#fff" xmlns="http://www.w3.org/2000/svg" viewBox="0 0 55.33 55.33">
            <path class="cls-1"
                  d="M20.56,41.11A20.56,20.56,0,1,1,41.11,20.56,20.58,20.58,0,0,1,20.56,41.11ZM20.56,2A18.56,18.56,0,1,0,39.11,20.56,18.57,18.57,0,0,0,20.56,2Z"/>
            <path class="cls-1"
                  d="M20.55,26A5.45,5.45,0,1,1,26,20.56,5.45,5.45,0,0,1,20.55,26Zm0-8.89A3.45,3.45,0,1,0,24,20.56,3.45,3.45,0,0,0,20.55,17.11Z"/>
            <path class="cls-1"
                  d="M49.89,37.56a5.45,5.45,0,1,1,5.44-5.45A5.45,5.45,0,0,1,49.89,37.56Zm0-8.89a3.45,3.45,0,1,0,3.44,3.44A3.44,3.44,0,0,0,49.89,28.67Z"/>
            <path class="cls-1"
                  d="M39.22,55.33H1.89a1,1,0,0,1-1-1V47.22a1,1,0,0,1,1-1H7.11V35.64a1,1,0,0,1,2,0V46.22H32V35.64a1,1,0,0,1,2,0V46.22h5.22a9.68,9.68,0,0,0,9.67-9.66,1,1,0,0,1,2,0A11.68,11.68,0,0,1,40.22,48.18v6.15A1,1,0,0,1,39.22,55.33Zm-36.33-2H38.22V48.22H2.89ZM48.21,21.56h-1a1,1,0,0,1,0-2h1a1,1,0,0,1,0,2Zm-3-10.21a1,1,0,0,1-.38-1.92l2.47-1A1,1,0,1,1,48,10.25l-2.47,1A1,1,0,0,1,45.19,11.35ZM39.41,2.7a1,1,0,0,1-.71-.29,1,1,0,0,1,0-1.42l.7-.7a1,1,0,0,1,1.41,0,1,1,0,0,1,0,1.42l-.7.7A1,1,0,0,1,39.41,2.7Z"/>
</svg>