<svg fill="#fff" xmlns="http://www.w3.org/2000/svg" viewBox="0 0 55.33 55.22">
            <path class="cls-1"
                  d="M27.67,55.22A27.7,27.7,0,0,1,0,27.56a1,1,0,0,1,1-1H54.33a1,1,0,0,1,1,1A27.69,27.69,0,0,1,27.67,55.22ZM2,28.56a25.66,25.66,0,0,0,51.29,0ZM27.67,19.7H23.24a9.86,9.86,0,0,1-9.85-9.85V5.43a1,1,0,0,1,1-1h4.42a9.86,9.86,0,0,1,9.86,9.85V18.7A1,1,0,0,1,27.67,19.7ZM15.39,6.43V9.85a7.86,7.86,0,0,0,7.85,7.85h3.43V14.28a7.87,7.87,0,0,0-7.86-7.85Z"/>
            <path class="cls-1"
                  d="M10.23,48.37a1,1,0,0,1-1-.87,1,1,0,0,1,.85-1.12L12,46.11l2.17-3.63a.67.67,0,0,0,.09-.34V37.3A.64.64,0,0,0,14.2,37a.64.64,0,0,0-.22-.24l-4.57-3A1,1,0,0,1,9,33.14l-1.41-5A1,1,0,0,1,8.27,27a1,1,0,0,1,1.24.68l1.31,4.61,4.27,2.84A2.66,2.66,0,0,1,16,36a2.61,2.61,0,0,1,.31,1.26v4.84a2.71,2.71,0,0,1-.37,1.37l-2.42,4a1,1,0,0,1-.72.48l-2.39.34ZM12.62,47h0ZM29,45.66a2.66,2.66,0,0,1-2.21-1.19l-2-3a2.57,2.57,0,0,1-.44-1.55,2.55,2.55,0,0,1,.53-1.52l4.4-5.88V27.7a1,1,0,1,1,2,0v5.17a1,1,0,0,1-.2.6l-4.6,6.14a.62.62,0,0,0,0,.76l2,3a.66.66,0,0,0,.9.19l14.83-9.37a.61.61,0,0,0,.2-.19.69.69,0,0,0,.1-.25l1.13-6.2a1,1,0,1,1,2,.36l-1.12,6.2a2.71,2.71,0,0,1-.42,1,2.57,2.57,0,0,1-.78.76L30.46,45.24A2.7,2.7,0,0,1,29,45.66Zm-1.36-17.1a1,1,0,0,1-1-1V19.12l-6.79-6.79a1,1,0,0,1,0-1.41,1,1,0,0,1,1.41,0l5.42,5.41a.86.86,0,0,1,0-.28V11a11,11,0,0,1,11-11h5.09a1,1,0,0,1,1,1V6.09a11,11,0,0,1-11,11H27.67a1.26,1.26,0,0,1-.28,0l1,1a1,1,0,0,1,.29.7v8.86A1,1,0,0,1,27.67,28.56Zm1-13.51h4.09a9,9,0,0,0,9-9V2H37.63a9,9,0,0,0-9,9Z"/>
            <path class="cls-1"
                  d="M27.66,28.56a1,1,0,0,1-1-1V16.05a1,1,0,0,1,.3-.71L34,8.26a1,1,0,1,1,1.41,1.41l-6.79,6.79v11.1A1,1,0,0,1,27.66,28.56Z"/>
</svg>