<svg xmlns="http://www.w3.org/2000/svg" viewBox="0 0 78.31 78.31">

            <path class="cls-1"
                  d="M27.28,54.72A17.91,17.91,0,1,1,45.19,36.81,17.92,17.92,0,0,1,27.28,54.72Zm0-32.81a14.91,14.91,0,1,0,14.91,14.9A14.91,14.91,0,0,0,27.28,21.91Z"/>
            <path class="cls-1"
                  d="M24.94,43a1.49,1.49,0,0,1-1.06-.44l-4.69-4.69a1.49,1.49,0,0,1,0-2.12,1.51,1.51,0,0,1,2.12,0l3.63,3.63,8.31-8.32a1.5,1.5,0,1,1,2.12,2.13L26,42.56A1.51,1.51,0,0,1,24.94,43Z"/>
            <path class="cls-1"
                  d="M1.5,64.09a1.47,1.47,0,0,1-1.06-.44,1.49,1.49,0,0,1,0-2.12L14.62,47.35a1.51,1.51,0,0,1,2.12,0,1.49,1.49,0,0,1,0,2.12L2.56,63.65A1.47,1.47,0,0,1,1.5,64.09Z"/>
            <path class="cls-1"
                  d="M69.78,78.31H32a8.53,8.53,0,0,1-8.53-8.53V53.05a1.5,1.5,0,0,1,3,0V69.78a5.53,5.53,0,0,0,11.06,0V67.44a1.5,1.5,0,0,1,1.5-1.5H76.81a1.5,1.5,0,0,1,1.5,1.5v2.34A8.53,8.53,0,0,1,69.78,78.31Zm-31.32-3H69.78a5.54,5.54,0,0,0,5.53-5.53v-.84H40.5v.84A8.5,8.5,0,0,1,38.46,75.31Z"/>
            <path class="cls-1"
                  d="M24.94,22.07a1.5,1.5,0,0,1-1.5-1.5V10.88a1.5,1.5,0,1,1,3,0v9.69A1.5,1.5,0,0,1,24.94,22.07Z"/>
            <path class="cls-1"
                  d="M67.44,68.94a1.5,1.5,0,0,1-1.5-1.5V10.88A7.88,7.88,0,0,0,58.06,3H17.91a1.5,1.5,0,0,1,0-3H58.06A10.89,10.89,0,0,1,68.94,10.88V67.44A1.5,1.5,0,0,1,67.44,68.94Z"/>
            <path class="cls-1"
                  d="M24.94,12.38H10.88a1.5,1.5,0,0,1-1.5-1.5V8.53a8.53,8.53,0,0,1,17.06,0v2.35A1.5,1.5,0,0,1,24.94,12.38Zm-12.56-3H23.44V8.53a5.53,5.53,0,0,0-11.06,0Z"/>

</svg>