<svg xmlns="http://www.w3.org/2000/svg" viewBox="0 0 74.93 78.31">

            <path class="cls-1"
                  d="M20.93,72.84a1.5,1.5,0,0,1-1.5-1.5V43.84a10.72,10.72,0,0,1,21.44,0V54.15a1.5,1.5,0,0,1-3,0V43.84a7.72,7.72,0,0,0-15.44,0v27.5A1.5,1.5,0,0,1,20.93,72.84Z"/>
            <path class="cls-1"
                  d="M11.56,55.65a1.5,1.5,0,0,1-1.5-1.5V43.69A20.09,20.09,0,0,1,48.69,36a1.5,1.5,0,1,1-2.76,1.16,17.09,17.09,0,0,0-32.87,6.57V54.15A1.5,1.5,0,0,1,11.56,55.65Z"/>
            <path class="cls-1"
                  d="M67.14,40.19a1.51,1.51,0,0,1-1.49-1.3A35.8,35.8,0,0,0,3.81,19.6a3,3,0,0,0,.71,4.68l.17.1a3,3,0,0,0,3.75-.57A29.43,29.43,0,0,1,58,34.13a1.5,1.5,0,1,1-2.83,1,26.44,26.44,0,0,0-44.54-9.28A6,6,0,0,1,3.19,27L3,26.88A6,6,0,0,1,1.6,17.57a38.8,38.8,0,0,1,67,20.91,1.49,1.49,0,0,1-1.28,1.69Z"/>
            <path class="cls-1"
                  d="M30.15,68.47a1.5,1.5,0,0,1-1.5-1.5V42.9a1.5,1.5,0,0,1,3,0V67A1.5,1.5,0,0,1,30.15,68.47Z"/>
            <path class="cls-1"
                  d="M56.43,78.31h-.19A21.08,21.08,0,0,1,37.93,57.45V41.28a1.5,1.5,0,0,1,1-1.41l17-6a1.56,1.56,0,0,1,1,0l17,6a1.5,1.5,0,0,1,1,1.41V57.45A21.08,21.08,0,0,1,56.62,78.3Zm-15.5-36V57.45A18.07,18.07,0,0,0,56.43,75.3a18.07,18.07,0,0,0,15.5-17.85V42.34l-15.5-5.5Z"/>
            <path class="cls-1"
                  d="M56.11,61.47A1.49,1.49,0,0,1,55,61l-3.69-3.69a1.5,1.5,0,1,1,2.12-2.12l2.64,2.63L61.94,52a1.5,1.5,0,0,1,2.13,2.12L57.17,61A1.48,1.48,0,0,1,56.11,61.47Z"/>
            <path class="cls-1"
                  d="M73.15,28.32a1.49,1.49,0,0,1-1.39-.95,44.53,44.53,0,0,0-23.6-24.5,1.48,1.48,0,0,1-.77-2,1.48,1.48,0,0,1,2-.77A47.46,47.46,0,0,1,74.55,26.26a1.52,1.52,0,0,1-1.4,2.06Z"/>

</svg>