<svg xmlns="http://www.w3.org/2000/svg" viewBox="0 0 72.71 72">

            <path class="cls-1"
                  d="M14.11,7.61a36.35,36.35,0,0,1,44.51,0Zm4.6,9.93A25.53,25.53,0,0,0,31.33,61V72A36.37,36.37,0,0,1,5,17.54ZM61.89,36A25.41,25.41,0,0,0,54,17.54H67.69A36.36,36.36,0,0,1,41.63,72V61A25.52,25.52,0,0,0,61.89,36Z"/>
            <path class="cls-2"
                  d="M14.11,7.61a36.35,36.35,0,0,1,44.51,0Zm4.6,9.93A25.53,25.53,0,0,0,31.33,61V72A36.37,36.37,0,0,1,5,17.54ZM61.89,36A25.41,25.41,0,0,0,54,17.54H67.69A36.36,36.36,0,0,1,41.63,72V61A25.52,25.52,0,0,0,61.89,36Z"/>
            <path class="cls-1"
                  d="M25.09,17.54h6.24v9a10.72,10.72,0,0,0,0,18.91V57a21.69,21.69,0,0,1-6.24-39.49Zm16.56,9.13V17.54h6.11A21.68,21.68,0,0,1,41.65,57V45.27a10.7,10.7,0,0,0,0-18.6Z"/>
            <path class="cls-2"
                  d="M25.09,17.54h6.24v9a10.72,10.72,0,0,0,0,18.91V57a21.69,21.69,0,0,1-6.24-39.49Zm16.56,9.13V17.54h6.11A21.68,21.68,0,0,1,41.65,57V45.27a10.7,10.7,0,0,0,0-18.6Z"/>

</svg>