<svg xmlns="http://www.w3.org/2000/svg" xmlns:xlink="http://www.w3.org/1999/xlink" viewBox="0 0 52.21 49.07">
                <path class="cls-3"
                      d="M44.83,49.07H7.38A7.39,7.39,0,0,1,0,41.69V16.79A7.39,7.39,0,0,1,7.38,9.41H44.83a7.39,7.39,0,0,1,7.38,7.38v24.9A7.39,7.39,0,0,1,44.83,49.07ZM7.38,11.41A5.39,5.39,0,0,0,2,16.79v24.9a5.38,5.38,0,0,0,5.38,5.38H44.83a5.39,5.39,0,0,0,5.38-5.38V16.79a5.39,5.39,0,0,0-5.38-5.38Z"/>
                <path class="cls-3"
                      d="M35.54,11.41H16.66a1,1,0,0,1-1-1V4.78A4.79,4.79,0,0,1,20.44,0H31.77a4.78,4.78,0,0,1,4.77,4.78v5.63A1,1,0,0,1,35.54,11.41Zm-17.88-2H34.54V4.78A2.78,2.78,0,0,0,31.77,2H20.44a2.79,2.79,0,0,0-2.78,2.78Z"/>
                <path class="cls-3"
                      d="M29.24,39.66H23a1,1,0,0,1-1-1V33.38H16.69a1,1,0,0,1-1-1V26.1a1,1,0,0,1,1-1H22V19.83a1,1,0,0,1,1-1h6.28a1,1,0,0,1,1,1V25.1h5.28a1,1,0,0,1,1,1v6.28a1,1,0,0,1-1,1H30.24v5.28A1,1,0,0,1,29.24,39.66Zm-5.28-2h4.28V32.38a1,1,0,0,1,1-1h5.28V27.1H29.24a1,1,0,0,1-1-1V20.83H24V26.1a1,1,0,0,1-1,1H17.69v4.28H23a1,1,0,0,1,1,1Z"/>
                <path class="cls-3"
                      d="M44.83,49.07H7.38a1,1,0,0,1-1-1V10.41a1,1,0,0,1,1-1H44.83a1,1,0,0,1,1,1V48.07A1,1,0,0,1,44.83,49.07Zm-36.45-2H43.83V11.41H8.38Z"/>
</svg>