<svg xmlns="http://www.w3.org/2000/svg" xmlns:xlink="http://www.w3.org/1999/xlink" viewBox="0 0 71.75 78.31">
    <path class="cls-3"
          d="M65.56,37.38H6.19a1.5,1.5,0,0,1-1.5-1.5V34.31a31.22,31.22,0,0,1,25.2-30.6,1.5,1.5,0,1,1,.57,3A28.2,28.2,0,0,0,7.69,34.31v.07H64.06v-.07A28.2,28.2,0,0,0,41.29,6.66a1.5,1.5,0,0,1,.57-2.95,31.22,31.22,0,0,1,25.2,30.6v1.57A1.5,1.5,0,0,1,65.56,37.38Z"/>
    <path class="cls-3"
          d="M60.88,78.31H45.5a6.22,6.22,0,0,1-5.87-4.23l-1.06-3.2a2.82,2.82,0,0,0-1-1.41,2.87,2.87,0,0,0-3.31,0,2.75,2.75,0,0,0-1,1.41l-1.07,3.2a6.18,6.18,0,0,1-2.26,3.06,6.1,6.1,0,0,1-3.61,1.17H10.88a6.19,6.19,0,0,1-6.19-6.19V59.62a6.19,6.19,0,0,1,6.19-6.18h50a6.18,6.18,0,0,1,6.18,6.18v12.5A6.19,6.19,0,0,1,60.88,78.31Zm-25-12.37a5.82,5.82,0,0,1,5.53,4l1.07,3.2a3.11,3.11,0,0,0,1.16,1.58,3.2,3.2,0,0,0,1.86.6H60.88a3.19,3.19,0,0,0,3.18-3.19V59.62a3.19,3.19,0,0,0-3.18-3.18h-50a3.19,3.19,0,0,0-3.19,3.18v12.5a3.19,3.19,0,0,0,3.19,3.19H26.25a3.2,3.2,0,0,0,1.86-.6,3.11,3.11,0,0,0,1.16-1.58l1.07-3.2a5.82,5.82,0,0,1,5.54-4Z"/>
    <path class="cls-3"
          d="M65.56,46.75H6.19a6.19,6.19,0,1,1,0-12.37H65.56a6.19,6.19,0,1,1,0,12.37ZM6.19,37.38a3.19,3.19,0,1,0,0,6.37H65.56a3.19,3.19,0,1,0,0-6.37Z"/>
    <path class="cls-3"
          d="M49.94,21.75a1.52,1.52,0,0,1-.59-.12,1.49,1.49,0,0,1-.79-2l4-9.43a1.5,1.5,0,0,1,2.76,1.18l-4,9.43A1.51,1.51,0,0,1,49.94,21.75Z"/>
    <path class="cls-3"
          d="M21.81,21.75a1.51,1.51,0,0,1-1.38-.91l-4-9.43a1.5,1.5,0,1,1,2.76-1.18l4,9.43a1.5,1.5,0,0,1-.79,2A1.52,1.52,0,0,1,21.81,21.75Z"/>
    <path class="cls-3"
          d="M39.78,18.62h-.22A1.5,1.5,0,0,1,38.3,16.9L40.38,3h-9l2.08,13.9a1.5,1.5,0,1,1-3,.45L28.14,1.72A1.5,1.5,0,0,1,29.62,0h12.5a1.5,1.5,0,0,1,1.49,1.72L41.26,17.35A1.49,1.49,0,0,1,39.78,18.62Z"/>
</svg>