<svg xmlns="http://www.w3.org/2000/svg" viewBox="0 0 70 70.1">

            <path class="cls-1"
                  d="M63,16.9a4.13,4.13,0,0,1,4.2,4.2v42A4.13,4.13,0,0,1,63,67.3H7a4.13,4.13,0,0,1-4.2-4.2v-42A4.13,4.13,0,0,1,7,16.9Zm0-2.8H7a6.93,6.93,0,0,0-7,7v42a6.93,6.93,0,0,0,7,7H63a6.93,6.93,0,0,0,7-7v-42A6.93,6.93,0,0,0,63,14.1Z"/>
            <path class="cls-1"
                  d="M50,9.67a1.5,1.5,0,0,1-1.5-1.5A5.6,5.6,0,0,0,43.18,3H26.82A5.6,5.6,0,0,0,21.5,8.17a1.5,1.5,0,1,1-3,0A8.57,8.57,0,0,1,26.82,0H43.18A8.57,8.57,0,0,1,51.5,8.17,1.5,1.5,0,0,1,50,9.67Z"/>
            <path class="cls-1"
                  d="M35,43a1.5,1.5,0,0,1-.62-.13l-33.33-15a1.5,1.5,0,0,1,1.23-2.74L35,39.85,67.72,25.13A1.5,1.5,0,0,1,69,27.87l-33.34,15A1.42,1.42,0,0,1,35,43Z"/>
            <path class="cls-1"
                  d="M45,54.67H25a1.5,1.5,0,0,1-1.5-1.5V46.5a1.5,1.5,0,0,1,3,0v5.17h17V46.5a1.5,1.5,0,0,1,3,0v6.67A1.5,1.5,0,0,1,45,54.67Z"/>

</svg>